<svg width="20" height="21" viewBox="0 0 20 21" fill="none" xmlns="http://www.w3.org/2000/svg">
<path d="M18.022 8.7516C17.7796 8.46063 17.4764 8.22641 17.1336 8.06546C16.7909 7.90451 16.4169 7.82076 16.0383 7.82011H12.1053L12.5883 6.58675C12.7892 6.04673 12.8561 5.46604 12.7833 4.89448C12.7105 4.32292 12.5001 3.77756 12.1702 3.30518C11.8403 2.8328 11.4007 2.44749 10.8892 2.18232C10.3776 1.91715 9.80941 1.78002 9.23324 1.78269C9.06733 1.78304 8.90505 1.83123 8.76583 1.92149C8.62662 2.01174 8.5164 2.14024 8.44838 2.29156L5.99029 7.82011H3.96344C3.2772 7.82011 2.61907 8.09271 2.13383 8.57796C1.64858 9.0632 1.37598 9.72133 1.37598 10.4076V16.445C1.37598 17.1312 1.64858 17.7894 2.13383 18.2746C2.61907 18.7598 3.2772 19.0325 3.96344 19.0325H14.9429C15.5482 19.0322 16.1343 18.8198 16.5992 18.4322C17.064 18.0445 17.3783 17.5061 17.4873 16.9107L18.5826 10.8733C18.6504 10.5002 18.6353 10.1167 18.5384 9.75008C18.4415 9.38343 18.2652 9.04256 18.022 8.7516ZM5.68842 17.3075H3.96344C3.73469 17.3075 3.51532 17.2166 3.35357 17.0549C3.19182 16.8931 3.10095 16.6737 3.10095 16.445V10.4076C3.10095 10.1788 3.19182 9.95945 3.35357 9.7977C3.51532 9.63595 3.73469 9.54508 3.96344 9.54508H5.68842V17.3075ZM16.9008 10.5628L15.8054 16.6002C15.7687 16.8012 15.6618 16.9825 15.5039 17.112C15.3459 17.2416 15.1471 17.3108 14.9429 17.3075H7.41339V8.86372L9.75936 3.58529C10.0008 3.65569 10.2251 3.77539 10.418 3.93683C10.6109 4.09827 10.7682 4.29794 10.8801 4.52324C10.9919 4.74855 11.0558 4.99459 11.0678 5.24584C11.0798 5.49709 11.0395 5.7481 10.9496 5.98301L10.4925 7.21637C10.3951 7.47706 10.3622 7.75745 10.3966 8.0336C10.4311 8.30976 10.5318 8.57348 10.6903 8.80226C10.8487 9.03104 11.0602 9.21809 11.3066 9.34744C11.553 9.47679 11.827 9.5446 12.1053 9.54508H16.0383C16.165 9.54488 16.2902 9.57259 16.405 9.62626C16.5197 9.67992 16.6213 9.75822 16.7024 9.85558C16.7855 9.9516 16.8463 10.0648 16.8806 10.187C16.9149 10.3093 16.9218 10.4376 16.9008 10.5628Z" fill="#9B9B9B"/>
</svg>
