<svg width="20" height="21" viewBox="0 0 20 21" fill="none" xmlns="http://www.w3.org/2000/svg">
<path fill-rule="evenodd" clip-rule="evenodd" d="M8.99929 2.92242H10.9962C11.0624 2.92242 11.1258 2.9487 11.1726 2.99548C11.2194 3.04226 11.2457 3.10572 11.2457 3.17188C11.2457 5.42701 13.6879 6.83772 15.6412 5.7089C15.6982 5.67667 15.7656 5.66815 15.8289 5.68518C15.8921 5.70222 15.9461 5.74344 15.9792 5.79996L16.9796 7.53122C17.0122 7.58835 17.0209 7.65605 17.0039 7.7196C16.9868 7.78314 16.9454 7.83737 16.8885 7.87049C14.9352 8.99805 14.9352 11.817 16.8885 12.9458C16.945 12.9789 16.9862 13.0329 17.0033 13.0961C17.0203 13.1594 17.0118 13.2268 16.9796 13.2838L15.9792 15.0151C15.9461 15.0716 15.8921 15.1128 15.8289 15.1298C15.7656 15.1469 15.6982 15.1384 15.6412 15.1061C13.6879 13.9773 11.2457 15.3868 11.2457 17.6407C11.2457 17.7066 11.2196 17.7699 11.1731 17.8166C11.1266 17.8634 11.0634 17.8898 10.9975 17.8901H9.00053C8.93437 17.8901 8.87092 17.8638 8.82414 17.8171C8.77735 17.7703 8.75107 17.7068 8.75107 17.6407C8.75107 15.3855 6.30884 13.9761 4.35556 15.1036C4.29843 15.1363 4.23072 15.145 4.16718 15.1279C4.10364 15.1109 4.04941 15.0694 4.01629 15.0126L3.01844 13.2813C2.9861 13.2244 2.97739 13.1572 2.99419 13.0939C3.01099 13.0307 3.05195 12.9766 3.10825 12.9433C5.06153 11.8145 5.06153 8.99556 3.10825 7.86675C3.05207 7.83365 3.01108 7.77987 2.99406 7.71692C2.97704 7.65398 2.98535 7.58687 3.01719 7.52997L4.01629 5.79746C4.04961 5.74082 4.10394 5.69962 4.16746 5.68281C4.23098 5.66599 4.29858 5.67492 4.35556 5.70765C6.30884 6.83647 8.75107 5.42576 8.75107 3.17063C8.75107 3.03343 8.86208 2.92242 8.99929 2.92242ZM6.88011 3.17188C6.88011 1.99941 7.82806 1.05145 8.99929 1.05145H10.9962C12.1687 1.05145 13.1167 1.99941 13.1167 3.17188C13.117 3.35768 13.1662 3.54013 13.2593 3.70093C13.3524 3.86173 13.4861 3.99525 13.647 4.0881C13.808 4.18095 13.9905 4.22988 14.1763 4.22997C14.3621 4.23007 14.5447 4.18133 14.7057 4.08865C15.1925 3.80832 15.7705 3.73258 16.3131 3.87803C16.8556 4.02348 17.3183 4.37826 17.5995 4.86447L18.5998 6.59574C19.1848 7.6098 18.8368 8.90451 17.824 9.48949C17.6629 9.58257 17.5291 9.7164 17.4361 9.87754C17.3431 10.0387 17.2941 10.2215 17.2941 10.4075C17.2941 10.5936 17.3431 10.7763 17.4361 10.9375C17.5291 11.0986 17.6629 11.2325 17.824 11.3255C18.3102 11.6068 18.665 12.0694 18.8104 12.6119C18.9559 13.1545 18.8801 13.7325 18.5998 14.2193L17.5995 15.9506C17.3183 16.4368 16.8556 16.7915 16.3131 16.937C15.7705 17.0824 15.1925 17.0067 14.7057 16.7264C14.5447 16.6337 14.3621 16.585 14.1763 16.5851C13.9905 16.5851 13.808 16.6341 13.647 16.7269C13.4861 16.8198 13.3524 16.9533 13.2593 17.1141C13.1662 17.2749 13.117 17.4573 13.1167 17.6431C13.1167 18.8144 12.1687 19.7636 10.9975 19.7636H9.00053C8.43838 19.7632 7.89936 19.5397 7.50197 19.1421C7.10459 18.7445 6.88136 18.2053 6.88136 17.6431C6.88098 17.4573 6.83179 17.2749 6.7387 17.1141C6.64561 16.9533 6.5119 16.8198 6.35096 16.7269C6.19002 16.6341 6.0075 16.5851 5.82169 16.5851C5.63589 16.585 5.45332 16.6337 5.29229 16.7264C4.80555 17.0067 4.22747 17.0824 3.68494 16.937C3.14241 16.7915 2.67976 16.4368 2.39853 15.9506L1.39819 14.2193C1.11786 13.7325 1.04212 13.1545 1.18757 12.6119C1.33302 12.0694 1.6878 11.6068 2.17401 11.3255C2.33482 11.2324 2.46832 11.0986 2.56113 10.9376C2.65393 10.7766 2.70278 10.594 2.70278 10.4081C2.70278 10.2223 2.65393 10.0397 2.56113 9.8787C2.46832 9.71769 2.33482 9.5839 2.17401 9.49074C1.6878 9.20951 1.33302 8.74686 1.18757 8.20433C1.04212 7.6618 1.11786 7.08372 1.39819 6.59699L2.39728 4.86447C2.67851 4.37826 3.14116 4.02348 3.68369 3.87803C4.22622 3.73258 4.8043 3.80832 5.29104 4.08865C5.45208 4.18133 5.63464 4.23007 5.82045 4.22997C6.00625 4.22988 6.18877 4.18095 6.34971 4.0881C6.51065 3.99525 6.64437 3.86173 6.73745 3.70093C6.83054 3.54013 6.87974 3.35768 6.88011 3.17188ZM11.8693 10.4063C11.8693 10.9025 11.6722 11.3784 11.3214 11.7292C10.9705 12.0801 10.4946 12.2772 9.99838 12.2772C9.50217 12.2772 9.02628 12.0801 8.67541 11.7292C8.32454 11.3784 8.12742 10.9025 8.12742 10.4063C8.12742 9.91006 8.32454 9.43417 8.67541 9.08329C9.02628 8.73242 9.50217 8.5353 9.99838 8.5353C10.4946 8.5353 10.9705 8.73242 11.3214 9.08329C11.6722 9.43417 11.8693 9.91006 11.8693 10.4063ZM13.7403 10.4063C13.7403 11.3987 13.3461 12.3505 12.6443 13.0522C11.9426 13.754 10.9908 14.1482 9.99838 14.1482C9.00596 14.1482 8.05419 13.754 7.35244 13.0522C6.65069 12.3505 6.25645 11.3987 6.25645 10.4063C6.25645 9.41385 6.65069 8.46207 7.35244 7.76032C8.05419 7.05858 9.00596 6.66434 9.99838 6.66434C10.9908 6.66434 11.9426 7.05858 12.6443 7.76032C13.3461 8.46207 13.7403 9.41385 13.7403 10.4063Z" fill="#9B9B9B"/>
</svg>
