<svg width="38" height="32" viewBox="0 0 38 32" fill="none" xmlns="http://www.w3.org/2000/svg">
<path d="M24.7146 31.6028C22.9564 31.0363 21.2547 27.165 19.1416 27.165C22.1015 28.904 20.8433 31.2094 20.6014 31.6028H24.7227H24.7146Z" fill="#FF570A"/>
<path d="M37.5225 17.5733C37.1515 8.36723 29.5219 0.860745 20.0937 0.43585C9.58482 -0.028388 0.922852 8.13905 0.922852 18.2815C0.922852 22.1527 2.18101 25.7329 4.32634 28.6521C5.56031 30.3359 7.48788 31.3982 9.57675 31.5713C6.50393 28.1721 9.11704 25.3316 9.11704 25.3316C7.8992 25.906 7.39917 27.8416 7.39917 27.8416C5.09253 26.4568 5.62483 24.8044 5.62483 24.8044C5.77001 24.4582 6.10068 23.5061 7.87501 23.8523C11.3108 12.8129 22.6262 18.5647 22.6262 18.5647C22.4487 18.2185 21.86 16.2514 21.86 16.2514C14.5126 15.2128 12.0286 10.1298 12.0286 10.1298C18.8436 8.10758 22.9891 13.5997 22.9891 13.5997C21.0938 9.09113 16.537 10.8851 15.3514 3.4888C23.2633 4.77136 24.4086 10.8222 24.5699 12.1283C24.6828 11.8766 25.3119 11.5382 27.9088 11.6877C31.9333 11.9159 35.1352 15.9052 35.1352 15.9052C35.1352 23.9939 25.0054 22.0426 25.0054 28.1564C25.0054 29.5884 26.6023 29.5019 27.1346 30.1943C27.5701 30.7608 27.3846 31.3903 27.2959 31.5949H28.2556C30.53 31.5949 32.6915 30.572 34.0303 28.778C36.3611 25.6542 37.6838 21.7672 37.5225 17.5654V17.5733Z" fill="#FF570A"/>
</svg>
