<svg width="21" height="20" viewBox="0 0 21 20" fill="none" xmlns="http://www.w3.org/2000/svg">
<path d="M16.9027 4.12269C15.7311 3.57654 14.4626 3.18014 13.1413 2.95111C13.1181 2.95144 13.0959 2.96094 13.0796 2.97754C12.9211 3.26823 12.7361 3.64701 12.6128 3.9377C11.2113 3.72642 9.78601 3.72642 8.38452 3.9377C8.26119 3.6382 8.07621 3.26823 7.90884 2.97754C7.90003 2.95992 7.8736 2.95111 7.84718 2.95111C6.52585 3.18014 5.26619 3.57654 4.0858 4.12269C4.077 4.12269 4.06819 4.13149 4.05938 4.1403C1.66337 7.7255 1.00271 11.2138 1.32864 14.6669C1.32864 14.6845 1.33745 14.7021 1.35507 14.7109C2.94066 15.8737 4.46458 16.5784 5.9709 17.0452C5.99732 17.0541 6.02375 17.0452 6.03256 17.0276C6.38491 16.5431 6.70203 16.0322 6.9751 15.4949C6.99272 15.4597 6.9751 15.4244 6.93987 15.4156C6.43776 15.2218 5.96209 14.9928 5.49522 14.7285C5.45998 14.7109 5.45998 14.6581 5.48641 14.6316C5.58331 14.5612 5.6802 14.4819 5.7771 14.4114C5.79472 14.3938 5.82115 14.3938 5.83876 14.4026C8.869 15.7856 12.1371 15.7856 15.1321 14.4026C15.1497 14.3938 15.1761 14.3938 15.1937 14.4114C15.2906 14.4907 15.3875 14.5612 15.4844 14.6404C15.5197 14.6669 15.5197 14.7197 15.4756 14.7373C15.0176 15.0104 14.5331 15.2306 14.031 15.4244C13.9957 15.4332 13.9869 15.4773 13.9957 15.5037C14.2776 16.041 14.5947 16.552 14.9383 17.0364C14.9647 17.0452 14.9911 17.0541 15.0176 17.0452C16.5327 16.5784 18.0566 15.8737 19.6422 14.7109C19.6598 14.7021 19.6686 14.6845 19.6686 14.6669C20.0562 10.6765 19.0256 7.21459 16.9379 4.1403C16.9291 4.13149 16.9203 4.12269 16.9027 4.12269ZM7.43316 12.5616C6.52585 12.5616 5.76829 11.7247 5.76829 10.6941C5.76829 9.66344 6.50823 8.8266 7.43316 8.8266C8.3669 8.8266 9.10684 9.67225 9.09803 10.6941C9.09803 11.7247 8.35809 12.5616 7.43316 12.5616ZM13.5729 12.5616C12.6656 12.5616 11.9081 11.7247 11.9081 10.6941C11.9081 9.66344 12.648 8.8266 13.5729 8.8266C14.5067 8.8266 15.2466 9.67225 15.2378 10.6941C15.2378 11.7247 14.5067 12.5616 13.5729 12.5616Z" fill="#9B9B9B"/>
</svg>
