<svg width="13" height="12" viewBox="0 0 13 12" fill="none" xmlns="http://www.w3.org/2000/svg">
<path d="M1.09814 9.27616V11.1005C1.09814 11.2686 1.23017 11.4006 1.39821 11.4006H3.22258C3.30059 11.4006 3.37861 11.3706 3.43262 11.3106L9.98595 4.76324L7.7355 2.51278L1.18816 9.06011C1.12815 9.12012 1.09814 9.19214 1.09814 9.27616ZM11.7263 3.02288C11.7819 2.96736 11.8261 2.90142 11.8562 2.82882C11.8863 2.75622 11.9018 2.67839 11.9018 2.5998C11.9018 2.5212 11.8863 2.44338 11.8562 2.37078C11.8261 2.29818 11.7819 2.23223 11.7263 2.17671L10.322 0.772426C10.2665 0.716792 10.2006 0.672655 10.128 0.64254C10.0554 0.612425 9.97753 0.596924 9.89894 0.596924C9.82034 0.596924 9.74251 0.612425 9.66991 0.64254C9.59731 0.672655 9.53137 0.716792 9.47585 0.772426L8.37763 1.87065L10.6281 4.12111L11.7263 3.02288Z" fill="#E97C57"/>
</svg>
