<svg width="20" height="20" viewBox="0 0 20 20" fill="none" xmlns="http://www.w3.org/2000/svg">
<path fill-rule="evenodd" clip-rule="evenodd" d="M10.0004 1.75635C14.5534 1.75635 18.244 5.5401 18.244 10.2085C18.244 13.942 15.8847 17.1092 12.6112 18.2279C12.1932 18.3111 12.0449 18.0472 12.0449 17.8221C12.0449 17.5435 12.0547 16.6334 12.0547 15.5024C12.0547 14.7143 11.791 14.1999 11.495 13.9378C13.3309 13.7284 15.2599 13.0136 15.2599 9.76729C15.2599 8.84401 14.94 8.09058 14.4108 7.49869C14.4965 7.28518 14.7793 6.42549 14.33 5.26149C14.33 5.26149 13.6392 5.03501 12.0655 6.12811C11.4068 5.94098 10.7011 5.84683 10.0004 5.84353C9.29973 5.84683 8.5949 5.94098 7.93707 6.12811C6.36171 5.03501 5.66925 5.26149 5.66925 5.26149C5.22162 6.42549 5.50438 7.28518 5.58929 7.49869C5.06252 8.09058 4.7402 8.84401 4.7402 9.76729C4.7402 13.0054 6.66508 13.7311 8.49598 13.9446C8.26022 14.1557 8.0467 14.528 7.97251 15.0745C7.50263 15.2905 6.30895 15.6643 5.57362 14.3725C5.57362 14.3725 5.13754 13.5604 4.30988 13.5011C4.30988 13.5011 3.50613 13.4904 4.25382 14.0147C4.25382 14.0147 4.79378 14.2744 5.16886 15.2512C5.16886 15.2512 5.65276 16.7598 7.94614 16.2487C7.95026 16.9551 7.95768 17.621 7.95768 17.8221C7.95768 18.0455 7.80599 18.307 7.39463 18.2287C4.11863 17.1117 1.75684 13.9428 1.75684 10.2085C1.75684 5.5401 5.44832 1.75635 10.0004 1.75635Z" fill="#9B9B9B"/>
</svg>
