<svg width="20" height="20" viewBox="0 0 20 20" fill="none" xmlns="http://www.w3.org/2000/svg">
<path d="M12.8604 3.68433C13.7386 3.54028 14.6327 3.51502 15.5176 3.61011L15.7256 3.63647V3.63745C16.0362 3.68031 16.3369 3.72294 16.6113 3.80151C16.8899 3.88133 17.0656 3.97824 17.1641 4.0769L17.165 4.07788C17.3013 4.2139 17.4037 4.45731 17.4834 4.80347L17.5557 5.18335L17.6045 5.51538V5.51636C17.6957 6.17541 17.7295 7.02311 17.6152 7.97046L17.5566 8.38159C17.2023 10.5653 16.0433 13.1833 13.0859 15.2273L12.8008 15.4246L12.7656 15.7693C12.744 15.9839 12.7442 16.1911 12.748 16.3728V16.3826L12.7568 16.6394V16.6404C12.772 17.0544 12.7763 17.3271 12.7051 17.575C12.674 17.6828 12.5915 17.8123 12.415 17.9617C12.2376 18.1118 12.004 18.2491 11.7412 18.3787L11.4912 18.4968L11.1396 18.6521C10.8161 18.7896 10.5073 18.8965 10.2432 18.9226C9.99337 18.9473 9.88045 18.893 9.80859 18.821L9.80762 18.8201L9.74609 18.7507C9.64856 18.6242 9.57246 18.4447 9.49902 18.1882L9.41113 17.8416L9.36914 17.657C9.31623 17.4023 9.25044 17.1504 9.17285 16.9021L9.1709 16.8923L9.16699 16.8835L9.01074 16.4539L8.54492 15.2498L7.72949 16.2507L7.59766 16.3972C7.40402 16.5906 7.06799 16.7612 6.69531 16.9099C6.50492 16.9852 6.29918 17.0575 6.08789 17.1248L5.44727 17.3123L5.23828 17.3679L4.80762 17.4744L4.43066 17.5613L3.99023 17.656L3.70312 17.7117C3.67864 17.7157 3.65362 17.7141 3.62988 17.7068C3.60502 17.6991 3.58188 17.6852 3.56348 17.6667C3.5452 17.6484 3.53112 17.6261 3.52344 17.6013C3.51959 17.5889 3.51737 17.5761 3.5166 17.5632L3.51953 17.5242L3.5918 17.1609L3.73047 16.532L3.72949 16.531L3.83594 16.0994L3.9209 15.7751L3.91992 15.7742C4.03508 15.3527 4.17043 14.9142 4.32031 14.5378L4.32129 14.5359C4.46869 14.1631 4.64035 13.8262 4.83398 13.6326L4.83301 13.6316L4.89551 13.573L5.72754 12.7722L4.6582 12.3376L4.60059 12.3142L4.59277 12.3113L4.58398 12.3083L4.32715 12.2156C4.2417 12.1864 4.15574 12.1588 4.06934 12.1326H4.07031L3.82031 12.0564L3.81738 12.0554L3.36426 11.9138C3.2217 11.8665 3.08759 11.8174 2.96094 11.7634C2.70784 11.6556 2.53341 11.5471 2.4209 11.4343L2.41992 11.4333L2.375 11.3767C2.33448 11.3134 2.30924 11.2251 2.31348 11.0818C2.31968 10.8726 2.38864 10.6141 2.5 10.322L2.49902 10.321L2.59473 10.0867L2.74316 9.74976L2.86328 9.49976C2.99283 9.23733 3.12917 9.00427 3.2793 8.8269C3.4287 8.65042 3.55814 8.56801 3.66602 8.53687L3.66504 8.53589C3.86214 8.47966 4.09153 8.46975 4.4082 8.47827V8.47925L4.60449 8.48413V8.48511C4.85053 8.49371 5.15981 8.50729 5.46973 8.47729L5.81641 8.44312L6.01367 8.15698C8.05763 5.19858 10.6756 4.03969 12.8594 3.6853L12.8604 3.68433ZM6.30566 13.3669C5.98284 13.3494 5.66195 13.4265 5.38281 13.5896L5.3623 13.6013L5.34277 13.615L5.24316 13.6814L5.20117 13.7107L5.16309 13.7439L5.0791 13.8191L5.03027 13.8621L4.99023 13.9138L4.87695 14.0554L4.8623 14.075L4.84863 14.0945C4.52484 14.5627 4.36729 15.1607 4.26465 15.5945L4.26367 15.5984L4.16699 16.0144L4.12109 16.2058L3.83594 17.3962L5.02637 17.1101L5.19043 17.0701L5.56738 16.9841L5.57031 16.9832C6.05924 16.869 6.83394 16.6804 7.35547 16.2107L7.37012 16.198L7.38379 16.1843C7.6667 15.9016 7.83753 15.5248 7.86426 15.1257C7.89087 14.7268 7.77189 14.3313 7.5293 14.0134L7.51465 13.9939L7.49805 13.9763L7.4248 13.8914L7.40234 13.866L7.37793 13.8425L7.35645 13.822L7.34082 13.8064L7.32324 13.7927L7.23926 13.7205L7.21973 13.7039L7.19922 13.6892L7.09961 13.6199C6.86173 13.4693 6.58814 13.3824 6.30566 13.3669ZM11.9531 6.72632C11.618 6.72628 11.2862 6.79247 10.9766 6.92065C10.667 7.04883 10.3855 7.23655 10.1484 7.47339C9.91143 7.71031 9.72308 7.99195 9.59473 8.30151C9.46637 8.61123 9.39947 8.94379 9.39941 9.27905C9.39939 9.61412 9.46561 9.94601 9.59375 10.2556C9.72197 10.5653 9.91049 10.8467 10.1475 11.0837C10.6261 11.5625 11.2752 11.8316 11.9521 11.8318C12.6292 11.8319 13.279 11.5634 13.7578 11.0847C14.2366 10.6061 14.5056 9.95696 14.5059 9.28003C14.506 8.60305 14.2373 7.9532 13.7588 7.47437C13.5218 7.23734 13.2403 7.049 12.9307 6.92065C12.6209 6.7923 12.2884 6.72638 11.9531 6.72632Z" stroke="#9B9B9B" stroke-width="1.5"/>
</svg>
