<svg width="20" height="20" viewBox="0 0 20 20" fill="none" xmlns="http://www.w3.org/2000/svg">
<path d="M9.99993 13.8192C10.2164 13.8192 10.3979 13.7459 10.5446 13.5992C10.6912 13.4526 10.7643 13.2713 10.7638 13.0554V9.99993C10.7638 9.7835 10.6905 9.60221 10.5438 9.45606C10.3971 9.30991 10.2158 9.23658 9.99993 9.23607C9.78401 9.23556 9.60272 9.30889 9.45606 9.45606C9.3094 9.60323 9.23607 9.78452 9.23607 9.99993V13.0554C9.23607 13.2718 9.3094 13.4533 9.45606 13.6C9.60272 13.7467 9.78401 13.8197 9.99993 13.8192ZM9.99993 7.70835C10.2164 7.70835 10.3979 7.63502 10.5446 7.48836C10.6912 7.34169 10.7643 7.16041 10.7638 6.94449C10.7633 6.72857 10.6899 6.54728 10.5438 6.40062C10.3976 6.25396 10.2164 6.18063 9.99993 6.18063C9.7835 6.18063 9.60221 6.25396 9.45606 6.40062C9.30991 6.54728 9.23658 6.72857 9.23607 6.94449C9.23556 7.16041 9.30889 7.34195 9.45606 7.48912C9.60323 7.63629 9.78452 7.70937 9.99993 7.70835ZM9.99993 17.6385C8.94326 17.6385 7.95024 17.4379 7.02087 17.0366C6.09151 16.6353 5.28309 16.0912 4.59562 15.4042C3.90815 14.7173 3.36402 13.9089 2.96325 12.979C2.56248 12.0491 2.36184 11.0561 2.36133 9.99993C2.36082 8.94376 2.56146 7.95075 2.96325 7.02087C3.36504 6.091 3.90916 5.28258 4.59562 4.59562C5.28207 3.90865 6.09049 3.36453 7.02087 2.96325C7.95126 2.56197 8.94427 2.36133 9.99993 2.36133C11.0556 2.36133 12.0486 2.56197 12.979 2.96325C13.9094 3.36453 14.7178 3.90865 15.4042 4.59562C16.0907 5.28258 16.6351 6.091 17.0374 7.02087C17.4397 7.95075 17.6401 8.94376 17.6385 9.99993C17.637 11.0561 17.4364 12.0491 17.0366 12.979C16.6369 13.9089 16.0927 14.7173 15.4042 15.4042C14.7157 16.0912 13.9073 16.6356 12.979 17.0374C12.0506 17.4392 11.0576 17.6395 9.99993 17.6385ZM9.99993 16.1108C11.7059 16.1108 13.1508 15.5188 14.3348 14.3348C15.5188 13.1508 16.1108 11.7059 16.1108 9.99993C16.1108 8.29397 15.5188 6.84901 14.3348 5.66502C13.1508 4.48104 11.7059 3.88905 9.99993 3.88905C8.29397 3.88905 6.84901 4.48104 5.66502 5.66502C4.48104 6.84901 3.88905 8.29397 3.88905 9.99993C3.88905 11.7059 4.48104 13.1508 5.66502 14.3348C6.84901 15.5188 8.29397 16.1108 9.99993 16.1108Z" fill="#208682"/>
</svg>
