<svg width="20" height="20" viewBox="0 0 20 20" fill="none" xmlns="http://www.w3.org/2000/svg">
<path d="M1.62988 3.87567H15.7618V5.64216H1.62988V3.87567ZM1.62988 9.17512H11.3455V10.9416H1.62988V9.17512ZM1.62988 14.4746H7.81258V16.2411H1.62988V14.4746ZM17.3516 11.7365L18.2348 10.765C18.3217 10.6678 18.3698 10.542 18.3698 10.4117C18.3698 10.2813 18.3217 10.1555 18.2348 10.0584L16.645 8.46853C16.5478 8.38163 16.4221 8.33358 16.2917 8.33358C16.1613 8.33358 16.0356 8.38163 15.9384 8.46853L15.0552 9.35177L17.3516 11.7365ZM14.4369 9.97004L9.57906 14.7395V17.1243H11.8755L16.8216 12.2665L14.4369 9.88172V9.97004Z" fill="#9B9B9B"/>
</svg>
