<svg width="20" height="20" viewBox="0 0 20 20" fill="none" xmlns="http://www.w3.org/2000/svg">
<path d="M10.2905 1.49597C8.75105 1.49625 7.24053 1.91443 5.92009 2.70589C4.59964 3.49735 3.51881 4.6324 2.79289 5.98998C2.06696 7.34755 1.72317 8.87672 1.79819 10.4144C1.87321 11.952 2.36422 13.4404 3.21885 14.7209C4.07348 16.0014 5.25967 17.0258 6.65088 17.685C8.04209 18.3442 9.58615 18.6133 11.1183 18.4637C12.6505 18.3142 14.1134 17.7515 15.3508 16.8357C16.5883 15.9199 17.554 14.6854 18.1448 13.2638C18.4348 12.5665 17.74 11.8657 17.041 12.1498C15.8429 12.6351 14.5127 12.6852 13.2815 12.2913C12.0504 11.8975 10.9962 11.0846 10.3022 9.99403C9.60826 8.90347 9.31846 7.6042 9.48319 6.32212C9.64792 5.04004 10.2568 3.85623 11.2039 2.97652L11.2693 2.90849C11.7379 2.37273 11.3654 1.50277 10.6247 1.50277H10.3985L10.3407 1.49767L10.2905 1.49597Z" fill="#9B9B9B"/>
</svg>
