<svg width="20" height="21" viewBox="0 0 20 21" fill="none" xmlns="http://www.w3.org/2000/svg">
<path d="M14.0752 18.8308L13.7752 17.3308C13.5752 17.2475 13.3879 17.1601 13.2132 17.0688C13.0385 16.9775 12.8592 16.8648 12.6752 16.7308L11.2252 17.1808L10.2252 15.4808L11.3752 14.4808C11.3419 14.2475 11.3252 14.0308 11.3252 13.8308C11.3252 13.6308 11.3419 13.4141 11.3752 13.1808L10.2252 12.1808L11.2252 10.4808L12.6752 10.9308C12.8585 10.7975 13.0379 10.6851 13.2132 10.5938C13.3885 10.5025 13.5759 10.4148 13.7752 10.3308L14.0752 8.83081H16.0752L16.3752 10.3308C16.5752 10.4141 16.7629 10.5058 16.9382 10.6058C17.1135 10.7058 17.2925 10.8308 17.4752 10.9808L18.9252 10.4808L19.9252 12.2308L18.7752 13.2308C18.8085 13.4308 18.8252 13.6391 18.8252 13.8558C18.8252 14.0725 18.8085 14.2808 18.7752 14.4808L19.9252 15.4808L18.9252 17.1808L17.4752 16.7308C17.2919 16.8641 17.1129 16.9768 16.9382 17.0688C16.7635 17.1608 16.5759 17.2481 16.3752 17.3308L16.0752 18.8308H14.0752ZM0.0751953 17.8308V15.0308C0.0751953 14.4808 0.216862 13.9641 0.500195 13.4808C0.783529 12.9975 1.1752 12.6308 1.6752 12.3808C2.5252 11.9475 3.48353 11.5808 4.5502 11.2808C5.61686 10.9808 6.79186 10.8308 8.0752 10.8308H8.4252C8.5252 10.8308 8.62519 10.8475 8.72519 10.8808C8.24186 12.0808 8.04186 13.2725 8.1252 14.4558C8.20853 15.6391 8.60853 16.7641 9.3252 17.8308H0.0751953ZM15.0752 15.8308C15.6252 15.8308 16.0962 15.6351 16.4882 15.2438C16.8802 14.8525 17.0759 14.3815 17.0752 13.8308C17.0745 13.2801 16.8789 12.8095 16.4882 12.4188C16.0975 12.0281 15.6265 11.8321 15.0752 11.8308C14.5239 11.8295 14.0532 12.0255 13.6632 12.4188C13.2732 12.8121 13.0772 13.2828 13.0752 13.8308C13.0732 14.3788 13.2692 14.8498 13.6632 15.2438C14.0572 15.6378 14.5279 15.8335 15.0752 15.8308ZM8.0752 9.83081C6.9752 9.83081 6.03353 9.43914 5.2502 8.65581C4.46686 7.87248 4.0752 6.93081 4.0752 5.83081C4.0752 4.73081 4.46686 3.78914 5.2502 3.00581C6.03353 2.22248 6.9752 1.83081 8.0752 1.83081C9.1752 1.83081 10.1169 2.22248 10.9002 3.00581C11.6835 3.78914 12.0752 4.73081 12.0752 5.83081C12.0752 6.93081 11.6835 7.87248 10.9002 8.65581C10.1169 9.43914 9.1752 9.83081 8.0752 9.83081Z" fill="#9B9B9B"/>
</svg>
