<svg width="20" height="20" viewBox="0 0 20 20" fill="none" xmlns="http://www.w3.org/2000/svg">
<path d="M4.86014 14.0072V6.83883C5.4317 6.63675 5.91342 6.23913 6.22017 5.71623C6.52691 5.19333 6.63892 4.57882 6.5364 3.98132C6.43389 3.38382 6.12345 2.8418 5.65995 2.45105C5.19645 2.0603 4.60974 1.84599 4.00351 1.84599C3.39728 1.84599 2.81056 2.0603 2.34706 2.45105C1.88357 2.8418 1.57312 3.38382 1.47061 3.98132C1.36809 4.57882 1.48011 5.19333 1.78685 5.71623C2.09359 6.23913 2.57531 6.63675 3.14687 6.83883V14.0072C2.57531 14.2092 2.09359 14.6069 1.78685 15.1298C1.48011 15.6527 1.36809 16.2672 1.47061 16.8647C1.57312 17.4622 1.88357 18.0042 2.34706 18.3949C2.81056 18.7857 3.39728 19 4.00351 19C4.60974 19 5.19645 18.7857 5.65995 18.3949C6.12345 18.0042 6.43389 17.4622 6.5364 16.8647C6.63892 16.2672 6.52691 15.6527 6.22017 15.1298C5.91342 14.6069 5.4317 14.2092 4.86014 14.0072ZM16.853 14.0072V5.28318C16.853 4.82879 16.6725 4.39301 16.3512 4.07171C16.0299 3.75041 15.5942 3.56991 15.1398 3.56991H10.7093L12.0679 2.21128L10.8566 1L8.64133 3.21526L7.43005 4.42654L8.64133 5.63783L10.8566 7.85309L12.0679 6.64181L10.7093 5.28318H15.1398V14.0072C14.5682 14.2092 14.0865 14.6069 13.7798 15.1298C13.473 15.6527 13.361 16.2672 13.4635 16.8647C13.566 17.4622 13.8765 18.0042 14.34 18.3949C14.8035 18.7857 15.3902 19 15.9964 19C16.6026 19 17.1894 18.7857 17.6529 18.3949C18.1164 18.0042 18.4268 17.4622 18.5293 16.8647C18.6318 16.2672 18.5198 15.6527 18.2131 15.1298C17.9063 14.6069 17.4246 14.2092 16.853 14.0072Z" fill="#9B9B9B"/>
</svg>
