<svg width="20" height="21" viewBox="0 0 20 21" fill="none" xmlns="http://www.w3.org/2000/svg">
<g clip-path="url(#clip0_70_3847)">
<path d="M2.76465 3.92607C2.76465 3.12654 3.08226 2.35975 3.64761 1.7944C4.21297 1.22905 4.97975 0.911438 5.77928 0.911438L16.3305 0.911438C16.5703 0.911438 16.8004 1.00672 16.97 1.17633C17.1396 1.34593 17.2349 1.57597 17.2349 1.81583V16.889C17.2349 17.1288 17.1396 17.3589 16.97 17.5285C16.8004 17.6981 16.5703 17.7934 16.3305 17.7934H13.3158C13.076 17.7934 12.846 17.6981 12.6763 17.5285C12.5067 17.3589 12.4115 17.1288 12.4115 16.889C12.4115 16.6491 12.5067 16.4191 12.6763 16.2495C12.846 16.0799 13.076 15.9846 13.3158 15.9846H15.4261V13.5729H5.77928C5.54182 13.5729 5.30967 13.643 5.11192 13.7745C4.91416 13.9059 4.75963 14.0929 4.66768 14.3118C4.57573 14.5307 4.55046 14.7719 4.59504 15.0051C4.63963 15.2384 4.75208 15.4532 4.9183 15.6228C5.00144 15.7077 5.06704 15.8081 5.11137 15.9184C5.15569 16.0286 5.17787 16.1465 5.17664 16.2653C5.17541 16.3841 5.15079 16.5015 5.10419 16.6108C5.05758 16.7201 4.98991 16.8191 4.90503 16.9022C4.82016 16.9854 4.71973 17.051 4.6095 17.0953C4.49927 17.1396 4.38139 17.1618 4.26258 17.1606C4.14378 17.1593 4.02638 17.1347 3.91709 17.0881C3.8078 17.0415 3.70876 16.9738 3.62563 16.889C3.07355 16.3253 2.76444 15.5677 2.76465 14.7787V3.92607ZM15.4261 2.72021H5.77928C5.45946 2.72021 5.15275 2.84726 4.92661 3.0734C4.70047 3.29954 4.57343 3.60625 4.57343 3.92607V12.0149C4.95383 11.8492 5.36435 11.7638 5.77928 11.7641H15.4261V2.72021ZM6.3822 15.6831C6.3822 15.6032 6.41396 15.5265 6.4705 15.4699C6.52703 15.4134 6.60371 15.3817 6.68366 15.3817H10.9041C10.9841 15.3817 11.0608 15.4134 11.1173 15.4699C11.1738 15.5265 11.2056 15.6032 11.2056 15.6831V19.6021C11.2056 19.6581 11.19 19.713 11.1606 19.7606C11.1312 19.8082 11.089 19.8467 11.039 19.8718C10.9889 19.8968 10.9328 19.9074 10.8771 19.9024C10.8213 19.8973 10.7681 19.8769 10.7233 19.8433L8.97478 18.5325C8.9226 18.4934 8.85913 18.4722 8.7939 18.4722C8.72868 18.4722 8.66521 18.4934 8.61303 18.5325L6.86454 19.8433C6.81975 19.8769 6.7665 19.8973 6.71074 19.9024C6.65498 19.9074 6.59892 19.8968 6.54885 19.8718C6.49877 19.8467 6.45666 19.8082 6.42723 19.7606C6.39779 19.713 6.3822 19.6581 6.3822 19.6021V15.6831Z" fill="#9B9B9B"/>
</g>
<defs>
<clipPath id="clip0_70_3847">
<rect width="20" height="20" fill="white" transform="translate(0 0.407532)"/>
</clipPath>
</defs>
</svg>
