<svg width="20" height="21" viewBox="0 0 20 21" fill="none" xmlns="http://www.w3.org/2000/svg">
<path d="M14.125 17.7038V3.8288C14.125 3.53043 14.0065 3.24428 13.7955 3.0333C13.5845 2.82232 13.2984 2.7038 13 2.7038H4C3.70163 2.7038 3.41548 2.82232 3.2045 3.0333C2.99353 3.24428 2.875 3.53043 2.875 3.8288V16.5788C2.875 16.8772 2.99353 17.1633 3.2045 17.3743C3.41548 17.5853 3.70163 17.7038 4 17.7038H14.125ZM14.125 17.7038H16C16.2984 17.7038 16.5845 17.5853 16.7955 17.3743C17.0065 17.1633 17.125 16.8772 17.125 16.5788V10.2038C17.125 10.0049 17.046 9.81412 16.9053 9.67347C16.7647 9.53281 16.5739 9.4538 16.375 9.4538H14.875C14.6761 9.4538 14.4853 9.53281 14.3447 9.67347C14.204 9.81412 14.125 10.0049 14.125 10.2038V17.7038Z" stroke="#9B9B9B" stroke-width="1.5" stroke-linejoin="round"/>
<path d="M5.125 5.7038H8.125M5.125 8.3288H9.625" stroke="#9B9B9B" stroke-width="1.5" stroke-linecap="round" stroke-linejoin="round"/>
</svg>
