<svg width="20" height="21" viewBox="0 0 20 21" fill="none" xmlns="http://www.w3.org/2000/svg">
<path d="M9.99993 14.2268C10.2164 14.2268 10.3979 14.1535 10.5446 14.0068C10.6912 13.8602 10.7643 13.6789 10.7638 13.463V10.4075C10.7638 10.1911 10.6905 10.0098 10.5438 9.86365C10.3971 9.7175 10.2158 9.64417 9.99993 9.64366C9.78401 9.64315 9.60272 9.71648 9.45606 9.86365C9.3094 10.0108 9.23607 10.1921 9.23607 10.4075V13.463C9.23607 13.6794 9.3094 13.8609 9.45606 14.0076C9.60272 14.1543 9.78401 14.2273 9.99993 14.2268ZM9.99993 8.11594C10.2164 8.11594 10.3979 8.04261 10.5446 7.89595C10.6912 7.74929 10.7643 7.568 10.7638 7.35208C10.7633 7.13616 10.6899 6.95487 10.5438 6.80821C10.3976 6.66155 10.2164 6.58822 9.99993 6.58822C9.7835 6.58822 9.60221 6.66155 9.45606 6.80821C9.30991 6.95487 9.23658 7.13616 9.23607 7.35208C9.23556 7.568 9.30889 7.74954 9.45606 7.89671C9.60323 8.04388 9.78452 8.11696 9.99993 8.11594ZM9.99993 18.0461C8.94326 18.0461 7.95024 17.8455 7.02087 17.4442C6.09151 17.0429 5.28309 16.4988 4.59562 15.8118C3.90815 15.1249 3.36402 14.3164 2.96325 13.3866C2.56248 12.4567 2.36184 11.4637 2.36133 10.4075C2.36082 9.35136 2.56146 8.35834 2.96325 7.42847C3.36504 6.49859 3.90916 5.69018 4.59562 5.00321C5.28207 4.31625 6.09049 3.77212 7.02087 3.37084C7.95126 2.96956 8.94427 2.76892 9.99993 2.76892C11.0556 2.76892 12.0486 2.96956 12.979 3.37084C13.9094 3.77212 14.7178 4.31625 15.4042 5.00321C16.0907 5.69018 16.6351 6.49859 17.0374 7.42847C17.4397 8.35834 17.6401 9.35136 17.6385 10.4075C17.637 11.4637 17.4364 12.4567 17.0366 13.3866C16.6369 14.3164 16.0927 15.1249 15.4042 15.8118C14.7157 16.4988 13.9073 17.0432 12.979 17.445C12.0506 17.8468 11.0576 18.0471 9.99993 18.0461ZM9.99993 16.5184C11.7059 16.5184 13.1508 15.9264 14.3348 14.7424C15.5188 13.5584 16.1108 12.1135 16.1108 10.4075C16.1108 8.70157 15.5188 7.2566 14.3348 6.07261C13.1508 4.88863 11.7059 4.29664 9.99993 4.29664C8.29397 4.29664 6.84901 4.88863 5.66502 6.07261C4.48104 7.2566 3.88905 8.70157 3.88905 10.4075C3.88905 12.1135 4.48104 13.5584 5.66502 14.7424C6.84901 15.9264 8.29397 16.5184 9.99993 16.5184Z" fill="#9B9B9B"/>
</svg>
