<svg width="20" height="21" viewBox="0 0 20 21" fill="none" xmlns="http://www.w3.org/2000/svg">
<path d="M14.7692 13.592C14.4712 13.592 14.1731 13.4728 13.9346 13.2343L12.1462 11.4459C11.9077 11.2074 11.7885 10.9093 11.7885 10.6113C11.7885 10.3132 11.9077 10.0151 12.1462 9.77665L13.9346 7.98819C14.1731 7.74973 14.4712 7.6305 14.7692 7.6305C15.0673 7.6305 15.3654 7.74973 15.6038 7.98819L17.3923 9.77665C17.6308 10.0151 17.75 10.3132 17.75 10.6113C17.75 10.9093 17.6308 11.2074 17.3923 11.4459L15.6038 13.2343C15.3654 13.4728 15.0673 13.592 14.7692 13.592ZM14.7692 8.82281L12.9808 10.6113L14.7692 12.3997L16.5577 10.6113L14.7692 8.82281ZM10 8.82281C9.70192 8.82281 9.40385 8.70357 9.16538 8.46511L7.37692 6.67665C7.13846 6.43819 7.01923 6.14011 7.01923 5.84204C7.01923 5.54396 7.13846 5.24588 7.37692 5.00742L9.16538 3.21896C9.40385 2.9805 9.70192 2.86127 10 2.86127C10.2981 2.86127 10.5962 2.9805 10.8346 3.21896L12.6231 5.00742C12.8615 5.24588 12.9808 5.54396 12.9808 5.84204C12.9808 6.14011 12.8615 6.43819 12.6231 6.67665L10.8346 8.46511C10.5962 8.70357 10.2981 8.82281 10 8.82281ZM10 4.05357L8.21154 5.84204L10 7.6305L11.7885 5.84204L10 4.05357ZM10 18.3613C9.70192 18.3613 9.40385 18.242 9.16538 18.0036L7.37692 16.2151C7.13846 15.9767 7.01923 15.6786 7.01923 15.3805C7.01923 15.0824 7.13846 14.7843 7.37692 14.5459L9.16538 12.7574C9.40385 12.519 9.70192 12.3997 10 12.3997C10.2981 12.3997 10.5962 12.519 10.8346 12.7574L12.6231 14.5459C12.8615 14.7843 12.9808 15.0824 12.9808 15.3805C12.9808 15.6786 12.8615 15.9767 12.6231 16.2151L10.8346 18.0036C10.5962 18.242 10.2981 18.3613 10 18.3613ZM10 13.592L8.21154 15.3805L10 17.169L11.7885 15.3805L10 13.592ZM5.23077 13.592C4.93269 13.592 4.63462 13.4728 4.39615 13.2343L2.60769 11.4459C2.36923 11.2074 2.25 10.9093 2.25 10.6113C2.25 10.3132 2.36923 10.0151 2.60769 9.77665L4.39615 7.98819C4.63462 7.74973 4.93269 7.6305 5.23077 7.6305C5.52885 7.6305 5.82692 7.74973 6.06538 7.98819L7.85385 9.77665C8.09231 10.0151 8.21154 10.3132 8.21154 10.6113C8.21154 10.9093 8.09231 11.2074 7.85385 11.4459L6.06538 13.2343C5.82692 13.4728 5.52885 13.592 5.23077 13.592ZM5.23077 8.82281L3.44231 10.6113L5.23077 12.3997L7.01923 10.6113L5.23077 8.82281Z" fill="#9B9B9B"/>
</svg>
