<svg width="20" height="21" viewBox="0 0 20 21" fill="none" xmlns="http://www.w3.org/2000/svg">
<path d="M4 12.6113V13.6113H6.293L3 16.9043L3.707 17.6113L7 14.3183V16.6113H8V12.6113H4Z" fill="#9B9B9B"/>
<path d="M13.5 10.6113C12.715 10.6113 11.994 10.8693 11.4095 11.3073L9.3 9.19877C9.75441 8.59772 10.0002 7.86476 10 7.11127C10 5.18127 8.43 3.61127 6.5 3.61127C4.57 3.61127 3 5.18127 3 7.11127C3 9.04127 4.57 10.6113 6.5 10.6113C7.285 10.6113 8.009 10.3438 8.5935 9.90577L10.7025 12.0143C10.2478 12.619 10.0014 13.3547 10 14.1113C10 16.0413 11.57 17.6113 13.5 17.6113C15.43 17.6113 17 16.0413 17 14.1113C17 12.1813 15.43 10.6113 13.5 10.6113ZM4 7.11127C4 5.73277 5.1215 4.61127 6.5 4.61127C7.8785 4.61127 9 5.73277 9 7.11127C9 8.48977 7.8785 9.61127 6.5 9.61127C5.1215 9.61127 4 8.48977 4 7.11127Z" fill="#9B9B9B"/>
</svg>
