<svg width="20" height="20" viewBox="0 0 20 20" fill="none" xmlns="http://www.w3.org/2000/svg">
<path d="M7.40262 17.793H12.5979M10.0003 2.20703C9.06319 2.20681 8.14348 2.46004 7.33858 2.93991C6.53368 3.41979 5.87356 4.10843 5.42814 4.93289C4.98271 5.75735 4.76858 6.68694 4.80841 7.62319C4.84824 8.55943 5.14056 9.46747 5.6544 10.2511C6.48045 11.5084 6.89261 12.137 6.94716 12.2305C7.4234 13.0661 7.33595 12.7717 7.39569 13.732C7.40262 13.8394 7.40262 14.003 7.40262 14.3295C7.40262 14.5591 7.49385 14.7793 7.65623 14.9417C7.81862 15.1041 8.03886 15.1953 8.26851 15.1953H11.7321C11.9617 15.1953 12.1819 15.1041 12.3443 14.9417C12.5067 14.7793 12.5979 14.5591 12.5979 14.3295C12.5979 14.003 12.5979 13.8394 12.6049 13.732C12.6655 12.7709 12.5763 13.0661 13.0534 12.2305C13.1071 12.137 13.521 11.5084 14.3462 10.2503C14.8598 9.46662 15.1519 8.55867 15.1916 7.62255C15.2313 6.68644 15.0171 5.75701 14.5718 4.93268C14.1264 4.10836 13.4663 3.41983 12.6616 2.94C11.8568 2.46017 10.9372 2.20691 10.0003 2.20703Z" stroke="#FF570A" stroke-width="1.73177" stroke-linecap="round" stroke-linejoin="round"/>
</svg>
