<svg width="20" height="20" viewBox="0 0 20 20" fill="none" xmlns="http://www.w3.org/2000/svg">
<path d="M1.96771 17.793C1.80897 17.793 1.66465 17.7535 1.53477 17.6744C1.40488 17.5953 1.30386 17.4906 1.23171 17.3601C1.15955 17.2296 1.12001 17.0888 1.11308 16.9375C1.10615 16.7863 1.14569 16.6385 1.23171 16.4942L9.24118 2.63998C9.32777 2.49566 9.43976 2.38742 9.57715 2.31527C9.71453 2.24311 9.8551 2.20703 9.99883 2.20703C10.1426 2.20703 10.2834 2.24311 10.4214 2.31527C10.5594 2.38742 10.6711 2.49566 10.7565 2.63998L18.766 16.4942C18.8526 16.6385 18.8924 16.7866 18.8855 16.9384C18.8785 17.0902 18.8387 17.2308 18.766 17.3601C18.6932 17.4894 18.5922 17.5942 18.4629 17.6744C18.3336 17.7547 18.1893 17.7942 18.03 17.793H1.96771ZM3.46137 16.0613H16.5363L9.99883 4.8047L3.46137 16.0613ZM9.99883 15.1954C10.2442 15.1954 10.45 15.1122 10.6162 14.946C10.7825 14.7797 10.8653 14.5742 10.8647 14.3295C10.8641 14.0847 10.781 13.8792 10.6153 13.713C10.4497 13.5467 10.2442 13.4636 9.99883 13.4636C9.7535 13.4636 9.54799 13.5467 9.38232 13.713C9.21665 13.8792 9.13352 14.0847 9.13295 14.3295C9.13237 14.5742 9.21549 14.78 9.38232 14.9469C9.54915 15.1137 9.75465 15.1965 9.99883 15.1954ZM9.99883 12.5977C10.2442 12.5977 10.45 12.5146 10.6162 12.3483C10.7825 12.1821 10.8653 11.9766 10.8647 11.7318V9.13415C10.8647 8.88881 10.7816 8.68331 10.6153 8.51763C10.4491 8.35196 10.2436 8.26883 9.99883 8.26826C9.75408 8.26768 9.54857 8.3508 9.38232 8.51763C9.21607 8.68446 9.13295 8.88996 9.13295 9.13415V11.7318C9.13295 11.9771 9.21607 12.1829 9.38232 12.3492C9.54857 12.5154 9.75408 12.5983 9.99883 12.5977Z" fill="#B38705"/>
</svg>
